#N canvas 1067 338 450 300 12;
#X obj 80 19 inlet;
#X obj 80 96 log;
#X obj 80 43 t f b;
#X msg 140 72 2;
#X obj 140 97 log;
#X obj 80 122 /;
#X obj 79 147 i;
#X obj 79 172 t b f;
#X msg 79 197 2;
#X obj 79 222 pow;
#X obj 79 247 outlet;
#X text 154 34 rounds to the nearest pouwer of 2;
#X text 253 88 Derek Kwan 2016;
#X connect 0 0 2 0;
#X connect 1 0 5 0;
#X connect 2 0 1 0;
#X connect 2 1 3 0;
#X connect 3 0 4 0;
#X connect 4 0 5 1;
#X connect 5 0 6 0;
#X connect 6 0 7 0;
#X connect 7 0 8 0;
#X connect 7 1 9 1;
#X connect 8 0 9 0;
#X connect 9 0 10 0;
