#N canvas 287 168 886 655 12;
#X obj 223 117 rfft~;
#X obj 224 166 pdkfft/dkcarpol~;
#X obj 348 207 -~;
#X obj 223 241 pdkfft/dkpolcar~;
#N canvas 922 549 450 300 lock 0;
#X obj 53 32 inlet~;
#X obj 54 185 +~;
#X obj 118 157 *~ 0;
#X obj 104 102 lrshift~ 1;
#X obj 206 98 lrshift~ -1;
#X obj 312 35 inlet lock;
#X obj 54 210 outlet~;
#X connect 0 0 1 0;
#X connect 0 0 3 0;
#X connect 0 0 4 0;
#X connect 1 0 6 0;
#X connect 2 0 1 1;
#X connect 3 0 2 0;
#X connect 4 0 2 0;
#X connect 5 0 2 1;
#X restore 223 303 pd lock;
#N canvas 922 549 450 300 lock 0;
#X obj 53 32 inlet~;
#X obj 54 185 +~;
#X obj 118 157 *~ 0;
#X obj 104 102 lrshift~ 1;
#X obj 206 98 lrshift~ -1;
#X obj 312 35 inlet lock;
#X obj 54 210 outlet~;
#X connect 0 0 1 0;
#X connect 0 0 3 0;
#X connect 0 0 4 0;
#X connect 1 0 6 0;
#X connect 2 0 1 1;
#X connect 3 0 2 0;
#X connect 4 0 2 0;
#X connect 5 0 2 1;
#X restore 349 302 pd lock;
#X obj 223 358 pdkfft/dkcarpol~;
#X obj 138 378 rfft~;
#X text 282 99 back window;
#X text 379 362 backwin - prevphs;
#X obj 328 432 -~;
#X text 365 428 frontwin - backwin + prevphs;
#X obj 204 478 pdkfft/dkpolcar~;
#X obj 203 537 rifft~;
#X text 457 92 copied from I07.phase.vocoder but a little cleaner;
#X text 588 117 (does cartesian-polar conversions);
#N canvas 209 197 908 740 bufreader 0;
#X obj 34 16 inlet~;
#X obj 35 42 snapshot~;
#X obj 35 67 + 0;
#X obj 545 7 inlet offset;
#X obj 243 93 r \$0-winsize;
#X obj 290 187 * 1;
#X obj 381 32 t b f;
#X msg 381 57 2;
#X obj 381 82 pow;
#X obj 428 64 / 12;
#X obj 381 107 clip 0.125 8;
#X obj 381 132 t b f;
#X text 448 35 window stretch amt;
#X obj 216 154 samplerate~;
#X obj 149 156 * 1000;
#X obj 149 181 /;
#X text 231 69 windowsize in ms;
#X text 338 190 stretched windowsize in samps;
#X text 165 244 compensate for 4x overlap (4 windows/block);
#X obj 90 157 -;
#X obj 98 117 / 2;
#X text 88 78 1/2 window back;
#X text 136 472 front window;
#X text 386 477 backwindow;
#X obj 31 263 f;
#X obj 31 288 pack f f;
#X obj 35 92 t b f;
#X obj 31 313 t l b;
#X obj 35 372 line~;
#X msg 75 346 0;
#X obj 209 422 -~ 0;
#X text 262 339 backwindow 1/4 cycle behind front in samps;
#X obj 648 369 inlet~;
#X text 710 368 window;
#X obj 30 513 *~;
#X obj 271 513 *~;
#X obj 30 538 outlet~;
#X obj 271 538 outlet~;
#X obj 381 7 inlet transpose;
#X obj 30 472 tabread4~ \$1;
#X obj 269 480 tabread4~ \$1;
#X obj 149 131 t f b;
#X obj 248 316 / 4;
#X obj 149 206 / 4;
#X obj 116 14 bang~;
#X connect 0 0 1 0;
#X connect 1 0 2 0;
#X connect 2 0 26 0;
#X connect 3 0 2 1;
#X connect 4 0 5 0;
#X connect 4 0 41 0;
#X connect 5 0 20 0;
#X connect 5 0 42 0;
#X connect 5 0 24 1;
#X connect 6 0 7 0;
#X connect 6 1 9 0;
#X connect 7 0 8 0;
#X connect 8 0 10 0;
#X connect 9 0 8 1;
#X connect 10 0 11 0;
#X connect 11 0 5 0;
#X connect 11 1 5 1;
#X connect 13 0 15 1;
#X connect 14 0 15 0;
#X connect 15 0 43 0;
#X connect 19 0 39 1;
#X connect 19 0 40 1;
#X connect 20 0 19 1;
#X connect 24 0 25 0;
#X connect 25 0 27 0;
#X connect 26 0 24 0;
#X connect 26 1 19 0;
#X connect 27 0 28 0;
#X connect 27 1 29 0;
#X connect 28 0 30 0;
#X connect 28 0 39 0;
#X connect 29 0 28 0;
#X connect 30 0 40 0;
#X connect 32 0 34 1;
#X connect 32 0 35 1;
#X connect 34 0 36 0;
#X connect 35 0 37 0;
#X connect 38 0 6 0;
#X connect 39 0 34 0;
#X connect 40 0 35 0;
#X connect 41 0 14 0;
#X connect 41 1 13 0;
#X connect 42 0 30 1;
#X connect 43 0 25 1;
#X connect 44 0 1 0;
#X restore 127 80 pd bufreader;
#X obj 23 33 inlet~ pos;
#X obj 388 20 inlet offset;
#X obj 612 178 loadbang;
#X text 663 214 windodwsize;
#X obj 612 239 moses 9;
#X msg 612 264 9;
#X obj 612 289 dkp2rnd;
#X obj 669 326 s \$0-winsize;
#X text 412 142 needs dkp2rnd \, dkwinbl~ \, dkcarpol~ dkpolcar~ from
pdkfft;
#X obj 617 463 block~ 1024 4;
#X obj 469 51 pdkfft/dkwinbl~ hann;
#X obj 203 562 *~;
#X obj 104 9 inlet transpose;
#X msg 617 429 set \$1 4;
#X obj 613 215 f \$2;
#X obj 327 512 r \$0-winsize;
#X obj 327 537 t b f;
#X msg 327 562 2;
#X obj 327 587 /;
#X obj 378 565 * 3;
#X text 412 538 normalization;
#X obj 202 587 *~ 1;
#X obj 202 612 outlet~;
#X text 571 524 arg1 - buffer;
#X text 570 545 arg2 - fft size;
#X obj 670 403 array define \$0-prevphs;
#X obj 392 168 tabreceive~ \$0-prevphs;
#X obj 667 374 array size \$0-prevphs;
#X text 574 583 in1~ - pos;
#X text 573 600 in2 - tranposition in halfsteps;
#X text 573 620 in3 - offset;
#X text 733 38 Derek Kwan 2016;
#X text 665 17 dkpvoca~ - phase vocoder;
#X obj 382 478 tabsend~ \$0-prevphs;
#X obj 261 30 bang;
#X obj 255 66 s \$0-reset;
#X obj 30 224 r \$0-reset;
#X obj 30 249 f \$0;
#X obj 260 5 inlet reset;
#X msg 30 274 \; \$1-prevphs const 0;
#X connect 0 0 1 0;
#X connect 0 1 1 1;
#X connect 1 0 3 0;
#X connect 1 1 2 0;
#X connect 2 0 3 1;
#X connect 3 0 4 0;
#X connect 3 1 5 0;
#X connect 4 0 6 0;
#X connect 5 0 6 1;
#X connect 6 1 10 1;
#X connect 7 0 12 0;
#X connect 7 1 10 0;
#X connect 10 0 12 1;
#X connect 10 0 50 0;
#X connect 12 0 13 0;
#X connect 12 1 13 1;
#X connect 13 0 28 0;
#X connect 16 0 7 0;
#X connect 16 1 0 0;
#X connect 17 0 16 0;
#X connect 18 0 16 2;
#X connect 19 0 31 0;
#X connect 21 0 22 0;
#X connect 21 1 23 0;
#X connect 22 0 23 0;
#X connect 23 0 24 0;
#X connect 23 0 30 0;
#X connect 23 0 44 0;
#X connect 27 0 16 3;
#X connect 27 0 28 1;
#X connect 28 0 38 0;
#X connect 29 0 16 1;
#X connect 30 0 26 0;
#X connect 31 0 21 0;
#X connect 32 0 33 0;
#X connect 33 0 34 0;
#X connect 33 1 36 0;
#X connect 34 0 35 0;
#X connect 35 0 38 1;
#X connect 36 0 35 1;
#X connect 38 0 39 0;
#X connect 43 0 2 1;
#X connect 51 0 52 0;
#X connect 53 0 54 0;
#X connect 54 0 56 0;
#X connect 55 0 51 0;
